<?xml version="1.0" encoding="utf-8"?>
<svg viewBox="93.6261 564.433 1812.7491 871.134" xmlns="http://www.w3.org/2000/svg">
  <g>
    <path d="M1663.444,1240.18c-53.953,0-100.227,43.735-103.354,97.693c-3.127,53.959,38.081,97.694,92.039,97.694   c53.953,0,100.227-43.735,103.354-97.694C1758.61,1283.915,1717.402,1240.18,1663.444,1240.18z M1657.785,1379.04   c-22.736,0-41.168-18.431-41.168-41.167c0-22.735,18.432-41.167,41.168-41.167c22.74,0,41.172,18.432,41.172,41.167   C1698.957,1360.609,1680.525,1379.04,1657.785,1379.04z" style="fill: rgb(224, 179, 103);"/>
    <path d="M725.651,1240.18c-53.956,0-100.229,43.735-103.354,97.693c-3.127,53.959,38.078,97.694,92.036,97.694   c53.956,0,100.229-43.735,103.354-97.694C820.812,1283.915,779.607,1240.18,725.651,1240.18z M719.994,1379.04   c-22.738,0-41.169-18.431-41.169-41.167c0-22.735,18.431-41.167,41.169-41.167c22.735,0,41.167,18.432,41.167,41.167   C761.161,1360.609,742.729,1379.04,719.994,1379.04z" style="fill: rgb(224, 179, 103);"/>
    <path d="M1595.096,747.43h-75.258l-32.776,565.814l-1.441,24.949h49.715c3.097-67.466,62.37-122.755,129.546-122.755   c67.618,0,119.257,54.816,115.338,122.435l112.541,0.32l12.822-221.352C1916.801,923.213,1808.665,747.43,1595.096,747.43z    M1586.68,1136.399c-0.6,10.335-9.463,18.716-19.797,18.716H1543.7c-10.335,0-18.228-8.381-17.629-18.716   c0.599-10.334,9.462-18.71,19.796-18.71h23.184C1579.385,1117.689,1587.278,1126.065,1586.68,1136.399z M1621.582,901.511   c70.395,0.444,140.627,0.508,211.012,0.508c33.775,53.207,48.791,125.389,48.791,187.869   C1690.859,1089.888,1614.867,1017.442,1621.582,901.511z" style="fill: rgb(224, 179, 103);"/>
    <path d="M1425.713,564.433H602.242c-43.621,0-81.379,35.69-83.907,79.312l-8.021,138.467h-62.61   c-10.333,0-19.195,8.378-19.797,18.713c-0.596,10.335,7.297,18.71,17.629,18.71l62.605,0.071h276.594   c10.335,0,18.228,8.378,17.629,18.713c-0.599,10.335-9.462,18.713-19.797,18.713c-81.651,0-163.426-0.624-244.978-0.624H173.552   c-10.335,0-19.198,8.378-19.797,18.713c-0.599,10.334,7.294,18.712,17.629,18.712h364.037c41.931,0,84.227-0.629,126.282-0.629   c10.335,0,18.228,8.378,17.629,18.713c-0.503,8.68-6.835,15.979-14.975,18.094H340.544c-10.335,0-19.198,8.378-19.796,18.713   c-0.599,10.332,7.294,18.713,17.629,18.713h325.669c6.901,2.678,11.52,9.499,11.056,17.494   c-0.597,10.335-9.459,18.713-19.794,18.713c-21.053,0-42.7-1.213-63.179-1.213h-118.77c-10.335,0-19.198,8.378-19.796,18.71   c-0.569,9.802,6.5,17.84,16.045,18.647h287.979c10.334,0,18.226,8.378,17.626,18.713c-0.597,10.334-9.462,18.71-19.797,18.71   H493.219l-5.672,97.973h982.094l30.791-531.538C1502.955,600.128,1469.336,564.433,1425.713,564.433z" style="fill: rgb(224, 179, 103);"/>
    <path d="M478.107,1338.193l119.242-0.32c3.921-67.734,62.011-122.643,129.746-122.643c67.075,0,120.363,55.375,115.519,122.963   h617.591l7.988-137.962H486.1L478.107,1338.193z" style="fill: rgb(224, 179, 103);"/>
    <path d="M113.462,856.004c-10.34,0-19.206,8.381-19.804,18.718c-0.599,10.34,7.297,18.721,17.634,18.721   c10.34,0,19.208-8.381,19.807-18.721C131.695,864.385,123.802,856.004,113.462,856.004z" style="fill: rgb(224, 179, 103);"/>
    <path d="M411.464,995.979c-10.34,0-19.208,8.381-19.804,18.718c-0.599,10.34,7.294,18.721,17.634,18.721   s19.206-8.381,19.804-18.721C429.697,1004.359,421.801,995.979,411.464,995.979z" style="fill: rgb(224, 179, 103);"/>
    <path d="M271.71,929.71h-35.819c-8.284,0-15,6.716-15,15s6.716,15,15,15h35.819c8.284,0,15-6.716,15-15   S279.995,929.71,271.71,929.71z" style="fill: rgb(224, 179, 103);"/>
    <path d="M342.107,819.735h35.819c8.284,0,15-6.716,15-15s-6.716-15-15-15h-35.819c-8.284,0-15,6.716-15,15   S333.823,819.735,342.107,819.735z" style="fill: rgb(224, 179, 103);"/>
  </g>
</svg>