<?xml version="1.0" encoding="utf-8"?>
<svg viewBox="9.3121 12.5003 81.3126 74.9998" xmlns="http://www.w3.org/2000/svg">
  <path d="m27.031 50h-12.188c-0.64453 0-1.1719-0.52344-1.1719-1.1719s0.52734-1.1719 1.1719-1.1719h14.844c0.64844 0 1.1719 0.52344 1.1719 1.1719s-0.52344 1.1719-1.1719 1.1719h-1.0703c-0.32422 1.7734-0.49219 3.6016-0.49219 5.4688 0 16.816 13.652 30.469 30.469 30.469s30.469-13.652 30.469-30.469c0-15.789-12.031-28.789-27.418-30.316-0.40234-0.042969-0.70703-0.37891-0.70703-0.77734v-4.8438c0-0.42969 0.35156-0.78125 0.78125-0.78125h5.8594c1.2969 0 2.3438-1.0508 2.3438-2.3438s-1.0469-2.3438-2.3438-2.3438h-17.969c-1.293 0-2.3438 1.0508-2.3438 2.3438s1.0508 2.3438 2.3438 2.3438h5.8594c0.43359 0 0.78125 0.35156 0.78125 0.78125v4.8438c0 0.39844-0.30469 0.73438-0.70312 0.77734-10.445 1.0391-19.344 7.3594-23.984 16.254h5.4258c4.6016-7.0547 12.562-11.719 21.605-11.719 14.23 0 25.781 11.551 25.781 25.781s-11.551 25.781-25.781 25.781c-14.227 0-25.781-11.551-25.781-25.781 0-4.2188 1.0156-8.2031 2.8164-11.719h-16.098c-0.64453 0-1.1719-0.52344-1.1719-1.1719s0.52734-1.1719 1.1719-1.1719h10.281c0.66406-1.3594 1.4258-2.6641 2.2695-3.9062h-8.6445c-0.64453 0-1.1719-0.52344-1.1719-1.1719s0.52734-1.1719 1.1719-1.1719h10.398c5.0938-6.2031 12.477-10.461 20.852-11.48v-3.3633h-5.0781c-2.1562 0-3.9062-1.75-3.9062-3.9062s1.75-3.9062 3.9062-3.9062h17.969c2.1602 0 3.9062 1.75 3.9062 3.9062s-1.7461 3.9062-3.9062 3.9062h-5.0781v3.3594c15.84 1.9297 28.125 15.441 28.125 31.797 0 17.68-14.352 32.031-32.031 32.031-17.676 0-32.031-14.352-32.031-32.031 0-1.8633 0.16016-3.6914 0.46875-5.4688zm29.609-10.156v16.797c0 0.3125 0.125 0.60938 0.34375 0.82812l10.156 10.156c0.45703 0.45703 1.1992 0.45703 1.6562 0 0.46094-0.45703 0.46094-1.1992 0-1.6562l-9.8125-9.8125v-16.312c0-0.64844-0.52344-1.1719-1.1719-1.1719-0.64453 0-1.1719 0.52344-1.1719 1.1719zm-46.156 3.9062c-0.64844 0-1.1719-0.52344-1.1719-1.1719s0.52344-1.1719 1.1719-1.1719h4.3594c0.64844 0 1.1719 0.52344 1.1719 1.1719s-0.52344 1.1719-1.1719 1.1719z" fill-rule="evenodd"/>
</svg>