<?xml version="1.0" encoding="utf-8"?>
<svg viewBox="12.4998 12.4997 74.9994 74.9687" xmlns="http://www.w3.org/2000/svg">
  <path d="m39.113 14.062h-19.582c-3.0195 0-5.4688 2.4453-5.4688 5.4688v54.688c0 3.0195 2.4492 5.4688 5.4688 5.4688h46.094c0.43359 0 0.78125 0.35156 0.78125 0.78125s-0.34766 0.78125-0.78125 0.78125h-46.094c-3.8828 0-7.0312-3.1484-7.0312-7.0312v-54.688c0-3.8828 3.1484-7.0312 7.0312-7.0312h54.688c3.8828 0 7.0312 3.1484 7.0312 7.0312v24.219c0 0.43359-0.34766 0.78125-0.78125 0.78125s-0.78125-0.34766-0.78125-0.78125v-24.219c0-3.0234-2.4492-5.4688-5.4688-5.4688h-19.582v17.613c0 0.625-0.29688 1.2109-0.79688 1.5781-0.50781 0.36719-1.1523 0.47266-1.7461 0.28125l-5.2188-1.6562-5.2188 1.6562c-0.58984 0.19141-1.2383 0.085938-1.7422-0.28125-0.50391-0.36719-0.80078-0.95312-0.80078-1.5781zm22.797 49.508c-0.625-1.5391-0.96484-3.2188-0.96484-4.9805 0-7.3281 5.9453-13.277 13.277-13.277 7.3281 0 13.277 5.9492 13.277 13.277 0 1.7617-0.34375 3.4414-0.96875 4.9805l-8.6641 21.457c-0.59766 1.4727-2.0312 2.4414-3.6211 2.4414s-3.0195-0.96094-3.6211-2.4375zm12.312-10.449c-3.0195 0-5.4688 2.4531-5.4688 5.4688 0 3.0195 2.4492 5.4688 5.4688 5.4688 3.0156 0 5.4648-2.4492 5.4648-5.4688 0-3.0156-2.4492-5.4688-5.4648-5.4688zm-53.129 15.629c-0.64453 0-1.1719-0.52734-1.1719-1.1719s0.52734-1.1719 1.1719-1.1719h10.938c0.64844 0 1.1719 0.52734 1.1719 1.1719s-0.52344 1.1719-1.1719 1.1719zm0 4.6875c-0.64453 0-1.1719-0.52734-1.1719-1.1719 0-0.64844 0.52734-1.1719 1.1719-1.1719h21.094c0.64453 0 1.1719 0.52344 1.1719 1.1719 0 0.64453-0.52734 1.1719-1.1719 1.1719z" fill-rule="evenodd"/>
</svg>