<?xml version="1.0" encoding="utf-8"?>
<svg viewBox="5.8664 6.875 88.2627 90.8441" xmlns="http://www.w3.org/2000/svg">
  <path d="m84.547 87.137-2.293 3.1211c4.7109 0.34375 7.5234 1.3477 8.3672 2-0.41016 0.30859-1.3906 0.81641-3.3203 1.2773-2.3086 0.55078-5.2734 0.85156-8.3438 0.85156-3.0703 0-6.0312-0.30078-8.3438-0.85156-1.9297-0.46094-2.9102-0.96875-3.3203-1.2773 0.84375-0.64844 3.6562-1.6562 8.3672-2l-2.2891-3.1211c-3.9727 0.48828-9.5898 1.7734-9.5898 5.125 0 1.8789 1.7383 3.3203 5.1719 4.2852 2.6914 0.75391 6.2461 1.1719 10 1.1719 3.7578 0 7.3086-0.41797 10.004-1.1719 3.4336-0.96484 5.1719-2.4062 5.1719-4.2852 0-3.3516-5.6133-4.6367-9.5898-5.125z"/>
  <path d="m33.523 6.875h-23.598c-2.2383 0-4.0586 1.8164-4.0586 4.0547v23.602c0 2.2383 1.8203 4.0547 4.0586 4.0547h23.602c2.2383 0 4.0586-1.8164 4.0586-4.0547l-0.003907-23.598c0-2.2383-1.8203-4.0547-4.0586-4.0547zm-8.8477 3.3359v12.789c0 0.5-0.40625 0.90234-0.90234 0.90234h-4.0938c-0.49609 0-0.90234-0.40625-0.90234-0.90234v-12.789zm9.5742 24.324c0 0.39844-0.32422 0.72266-0.72266 0.72266l-23.602-0.003906c-0.39844 0-0.72266-0.32422-0.72266-0.72266v-23.598c0-0.39844 0.32422-0.72266 0.72266-0.72266h5.5195v12.789c0 2.3359 1.8984 4.2383 4.2344 4.2383h4.0938c2.3359 0 4.2383-1.9023 4.2383-4.2383l-0.003907-12.789h5.5156c0.39844 0 0.72266 0.32422 0.72266 0.72266v23.602z"/>
  <path d="m92.102 63.348c-2.4453-4.9844-7.2031-8.0469-12.715-8.1836-0.28516-0.007812-0.57422-0.007812-0.85547 0-5.5156 0.14063-10.273 3.1992-12.719 8.1836-2.4492 4.9883-1.9336 10.863 1.3438 15.328l6.2109 8.4609 2.2891 3.1211 0.49609 0.67188c0.66016 0.90234 1.6836 1.4219 2.8008 1.4219s2.1406-0.51562 2.8008-1.418l0.49609-0.67578 2.293-3.1211 6.2109-8.4609c3.2773-4.4648 3.793-10.34 1.3477-15.328zm-4.0352 13.355-7.4297 10.121-1.5664 2.1328c-0.011718 0.015625-0.042968 0.058594-0.11328 0.058594-0.070312 0-0.10156-0.039063-0.11328-0.058594l-1.5664-2.1328-7.4336-10.121c-2.5781-3.5117-2.9648-7.957-1.0391-11.887 1.8906-3.8516 5.5586-6.2148 9.8125-6.3203 0.11328-0.003906 0.22656-0.003906 0.33984-0.003906s0.22656 0 0.34375 0.003906c4.25 0.10547 7.918 2.4688 9.8086 6.3203 1.9297 3.9297 1.5391 8.375-1.0391 11.887z"/>
  <path d="m78.957 77.371c-4.2852 0-7.7734-3.4883-7.7734-7.7734s3.4883-7.7734 7.7734-7.7734c4.2852 0 7.7734 3.4883 7.7734 7.7734s-3.4883 7.7734-7.7734 7.7734zm0-12.215c-2.4492 0-4.4414 1.9922-4.4414 4.4414 0 2.4492 1.9922 4.4414 4.4414 4.4414s4.4414-1.9922 4.4414-4.4414c0-2.4492-1.9922-4.4414-4.4414-4.4414z"/>
  <path d="m22.164 48.289c-1.4414 0-2.6055-1.168-2.6055-2.6055v-1.1602c0-1.4414 1.168-2.6055 2.6055-2.6055 1.4414 0 2.6055 1.168 2.6055 2.6055v1.1602c0 1.4414-1.168 2.6055-2.6055 2.6055z"/>
  <path d="m34.285 88.047h-2.3086c-1.4414 0-2.6055-1.168-2.6055-2.6055 0-1.4414 1.168-2.6055 2.6055-2.6055h2.3086c1.4414 0 2.6055 1.168 2.6055 2.6055 0 1.4414-1.168 2.6055-2.6055 2.6055zm9.5586-0.55469c-1.0742 0-2.0781-0.66797-2.457-1.7383-0.48047-1.3555 0.22656-2.8477 1.5859-3.3281 0.52734-0.1875 1.0352-0.4375 1.5039-0.75 1.2031-0.78906 2.8203-0.45312 3.6094 0.75 0.78906 1.2031 0.45312 2.8203-0.75 3.6094-0.81641 0.53516-1.7031 0.97656-2.6211 1.3008-0.28906 0.10156-0.58203 0.14844-0.87109 0.14844zm-20.039-3.7344c-0.83984 0-1.6641-0.40625-2.168-1.1523-0.54688-0.8125-0.99219-1.6914-1.3281-2.6055-0.49609-1.3516 0.19531-2.8516 1.5469-3.3438 1.3516-0.49609 2.8477 0.19531 3.3438 1.5469 0.19141 0.52734 0.44922 1.0312 0.76562 1.5 0.80078 1.1953 0.48438 2.8164-0.71094 3.6172-0.44531 0.30078-0.95312 0.44141-1.4492 0.44141zm26.48-5.4141c-1.4414 0-2.6055-1.168-2.6055-2.6055v-2.3086c0-1.4414 1.168-2.6055 2.6055-2.6055 1.4414 0 2.6055 1.168 2.6055 2.6055v2.3086c0 1.4414-1.168 2.6055-2.6055 2.6055zm-28.121-6.1914c-1.4414 0-2.6055-1.168-2.6055-2.6055v-2.3086c0-1.4414 1.168-2.6055 2.6055-2.6055 1.4414 0 2.6055 1.168 2.6055 2.6055v2.3086c0 1.4414-1.168 2.6055-2.6055 2.6055zm28.121-5.7422c-1.4414 0-2.6055-1.168-2.6055-2.6055v-2.3086c0-1.4414 1.168-2.6055 2.6055-2.6055 1.4414 0 2.6055 1.168 2.6055 2.6055v2.3086c0 1.4414-1.168 2.6055-2.6055 2.6055zm-28.121-6.1914c-1.4414 0-2.6055-1.168-2.6055-2.6055v-2.3086c0-1.4414 1.168-2.6055 2.6055-2.6055 1.4414 0 2.6055 1.168 2.6055 2.6055v2.3086c0 1.4414-1.168 2.6055-2.6055 2.6055zm28.121-5.7383c-1.4414 0-2.6055-1.168-2.6055-2.6055v-2.3086c0-1.4414 1.168-2.6055 2.6055-2.6055 1.4414 0 2.6055 1.168 2.6055 2.6055v2.3086c0 1.4414-1.168 2.6055-2.6055 2.6055zm0-11.934c-1.4414 0-2.6055-1.168-2.6055-2.6055v-2.3086c0-1.4414 1.168-2.6055 2.6055-2.6055 1.4414 0 2.6055 1.168 2.6055 2.6055v2.3086c0 1.4414-1.168 2.6055-2.6055 2.6055zm29.914-1.5117c-1.4414 0-2.6055-1.168-2.6055-2.6055v-2.3086c0-1.4414 1.168-2.6055 2.6055-2.6055 1.4414 0 2.6055 1.168 2.6055 2.6055v2.3086c0 1.4414-1.168 2.6055-2.6055 2.6055zm-29.914-10.418c-1.4414 0-2.6055-1.168-2.6055-2.6055v-2.3086c0-1.4414 1.168-2.6055 2.6055-2.6055 1.4414 0 2.6055 1.168 2.6055 2.6055v2.3086c0 1.4414-1.168 2.6055-2.6055 2.6055zm29.914-1.5156c-1.4414 0-2.6055-1.168-2.6055-2.6055v-2.3086c0-1.4414 1.168-2.6055 2.6055-2.6055 1.4414 0 2.6055 1.168 2.6055 2.6055v2.3086c0 1.4414-1.168 2.6055-2.6055 2.6055zm-27.727-9.9062c-0.58203 0-1.168-0.19141-1.6523-0.58984-1.1133-0.91406-1.2773-2.5547-0.36328-3.668 0.61719-0.75391 1.3281-1.4336 2.1055-2.0234 1.1484-0.86719 2.7852-0.64062 3.6523 0.50781 0.86719 1.1484 0.64062 2.7852-0.50781 3.6523-0.44922 0.33984-0.85938 0.73438-1.2148 1.168-0.51563 0.62891-1.2617 0.95312-2.0156 0.95312zm24.488-1.0938c-0.61719 0-1.2383-0.21875-1.7344-0.66016-0.42187-0.375-0.88672-0.69922-1.3828-0.96484-1.2695-0.67969-1.75-2.2578-1.0703-3.5273 0.67969-1.2695 2.2578-1.75 3.5273-1.0703 0.85938 0.46094 1.668 1.0234 2.3984 1.6719 1.0742 0.95703 1.168 2.6055 0.21094 3.6797-0.51562 0.57812-1.2266 0.87109-1.9453 0.87109zm-11.324-2.4531h-2.3086c-1.4414 0-2.6055-1.168-2.6055-2.6055 0-1.4414 1.168-2.6055 2.6055-2.6055h2.3086c1.4414 0 2.6055 1.168 2.6055 2.6055 0 1.4414-1.168 2.6055-2.6055 2.6055z"/>
  <path d="m80.199 51.848c-1.4414 0-2.6055-1.168-2.6055-2.6055v-1.1602c0-1.4414 1.168-2.6055 2.6055-2.6055 1.4414 0 2.6055 1.168 2.6055 2.6055v1.1602c0 1.4414-1.168 2.6055-2.6055 2.6055z"/>
</svg>