<?xml version="1.0" encoding="utf-8"?>
<svg viewBox="9.5644 18.75 81.2798 62.5004" xmlns="http://www.w3.org/2000/svg">
  <path d="m35.375 18.75h48.438c3.8828 0 7.0312 3.1484 7.0312 7.0312v48.438c0 3.8828-3.1484 7.0312-7.0312 7.0312h-48.438c-3.8828 0-7.0312-3.1484-7.0312-7.0312v-3.6133c0-0.42969 0.34766-0.78125 0.78125-0.78125 0.42969 0 0.78125 0.35156 0.78125 0.78125v3.6133c0 3.0195 2.4492 5.4688 5.4688 5.4688h48.438c3.0195 0 5.4688-2.4492 5.4688-5.4688v-48.438c0-3.0195-2.4492-5.4688-5.4688-5.4688h-16.836v15.914c0 0.62109-0.29297 1.2031-0.79297 1.5703s-1.1406 0.47656-1.7344 0.29688l-4.8555-1.4961-4.8594 1.4961c-0.58984 0.17969-1.2344 0.070312-1.7305-0.29688-0.5-0.36719-0.79297-0.94922-0.79297-1.5703v-15.914h-16.836c-3.0195 0-5.4688 2.4492-5.4688 5.4688v17.465c0 0.42969-0.35156 0.78125-0.78125 0.78125-0.43359 0-0.78125-0.35156-0.78125-0.78125v-17.465c0-3.8828 3.1484-7.0312 7.0312-7.0312zm43.52 37.5h2c1.0586 0 1.918 0.85938 1.918 1.918v4.2617c0 1.375-0.54688 2.6914-1.5195 3.6641-0.62109 0.625-1.3867 1.0703-2.2188 1.3125l0.22656 2.4219c0.035157 0.35156 0.25781 0.65625 0.58203 0.79297 0.60547 0.25781 1.2461 0.57812 1.3906 0.70703 0 0 0.65234 0.46484 0.30859 1.3711-0.29297 0.76172-1.1133 0.73828-1.1133 0.73828h-5.6836s-0.80859 0.058594-1.1094-0.73828c-0.33203-0.86719 0.30469-1.3711 0.30469-1.3711 0.14844-0.12891 0.78516-0.44922 1.3906-0.70312 0.32812-0.14062 0.55078-0.44531 0.58203-0.79688 0.070313-0.72656 0.16016-1.6875 0.22656-2.418-2.1562-0.62891-3.7383-2.6211-3.7383-4.9805v-4.2617c0-1.0586 0.85938-1.918 1.918-1.918h2.9023l-0.87891 2.8984c-0.070312 0.23437-0.027343 0.49219 0.12109 0.69141 0.14453 0.19922 0.37891 0.31641 0.625 0.31641h1.2617l-0.4375 1.3164c-0.13672 0.40625 0.082031 0.85156 0.49219 0.98828 0.41016 0.13672 0.85156-0.085938 0.98828-0.49609l0.78125-2.3438c0.078125-0.23828 0.039062-0.5-0.10547-0.70312-0.14844-0.20312-0.38281-0.32422-0.63672-0.32422h-1.2891zm-59 6.8203c-0.52734 0.89453-1.6445 1.293-2.6367 0.89453l-6.3477-2.543c-1.0977-0.4375-1.6328-1.6836-1.1914-2.7812l6.6328-16.566c0.4375-1.0977 1.6836-1.6328 2.7812-1.1953l6.3477 2.543c1 0.40234 1.5352 1.4727 1.2891 2.4883l20.695-0.097656c1.5117-0.007812 2.7656 1.1719 2.8516 2.6836l0.003906 0.035156c0.085938 1.5273-1.0664 2.8438-2.5898 2.9609l-6.6445 0.52344 15.672 6.3711c0.65234 0.26562 1.1758 0.78125 1.4492 1.4297 0.27344 0.65234 0.27734 1.3867 0.007813 2.0391 0 0-0.34375 1.3438-1.8164 1.7656l1.125 0.48438c0.66016 0.28125 1.1758 0.8125 1.4414 1.4766 0.26562 0.66406 0.25391 1.4062-0.027344 2.0625v0.003907l-0.027344 0.054687-0.003906 0.003906v0.003907l0.003906-0.003907c-0.55078 1.2773-2.0156 1.8945-3.3164 1.3906l-0.57422-0.21875c0.37109 0.6875 0.43359 1.5352 0.10156 2.3086l-0.015625 0.035156c-0.5625 1.3086-2.0625 1.9336-3.3867 1.4062l-3.1992-1.2773c0.47656 0.73438 0.58594 1.6875 0.21094 2.5508-0.29297 0.66406-0.83984 1.1875-1.5156 1.4453-0.67969 0.25781-1.4336 0.23438-2.0938-0.070312 0 0-15.363-7.0469-15.609-7.168-0.18359-0.089844-7.2734-3.8086-9.6172-5.0391zm0.60547-1.4453s9.5312 4.9961 9.7031 5.082c0.17578 0.085938 15.57 7.1523 15.57 7.1523 0.28125 0.125 1.2188 0.11328 1.5234-0.58203 0.26953-0.61719 0.003906-1.2109-0.54297-1.4766l-12.883-6.293c-0.375-0.1875-0.53906-0.63672-0.37109-1.0195 0.17188-0.38281 0.61328-0.56641 1.0039-0.41016l17.793 7.0977c0.53516 0.21484 1.1445-0.039062 1.3711-0.56641l0.015625-0.039063c0.23828-0.55469-0.015625-1.1992-0.56641-1.4453l-16.672-7.4219c-0.38672-0.17188-0.56641-0.62109-0.40234-1.0117 0.16016-0.39453 0.60547-0.58203 1-0.42969l19.113 7.3789c0.51953 0.19922 1.1016-0.042969 1.3203-0.55469v0.003906h0.003907l-0.003907-0.003906 0.023438-0.058594h0.003906c0.11719-0.27734 0.12109-0.58594 0.011719-0.86719-0.11328-0.27734-0.33203-0.5-0.60547-0.62109l-17.562-7.5273c-0.38672-0.16406-0.57422-0.60938-0.41797-1.0039 0.15234-0.39453 0.59375-0.58984 0.98828-0.44922l15.379 5.5352c0.50391 0.18359 1.2539-0.23438 1.4727-0.83203 0.097657-0.26172 0.10938-0.57031-0.003906-0.83594-0.11328-0.26953-0.32812-0.48047-0.59766-0.59375l-18.73-7.6133c-0.33594-0.13672-0.53125-0.48438-0.47656-0.84375 0.054687-0.35938 0.34766-0.62891 0.71094-0.66016l9.9375-0.77734c0.67578-0.054688 1.1875-0.64062 1.1484-1.3164v-0.035156c-0.039062-0.68359-0.60547-1.2148-1.2852-1.2109l-21.309 0.10156z" fill-rule="evenodd"/>
</svg>